<svg xmlns="http://www.w3.org/2000/svg" viewBox="0 0 69.29 68.67"><defs><style>.a,.b,.c{fill:none;stroke-linecap:round;stroke-width:1.67px;}.a,.c{stroke:#009fe3;}.a{stroke-miterlimit:10;}.b{stroke:#000;}.b,.c{stroke-linejoin:round;}</style></defs><path class="a" d="M34.49,51.88V62.06a6,6,0,0,0,7.27,5.64A33.81,33.81,0,1,0,7.32,54.55"/><circle class="b" cx="10.5" cy="58.23" r="4.74"/><rect class="b" x="19.77" y="20.15" width="29.45" height="8.26" rx="1.41"/><path class="b" d="M45.78,28.41v7.81S45.94,47,34.28,47h.39c-11.66,0-11.5-10.8-11.5-10.8V28.41"/><path class="b" d="M38.14,47v2.27c0,1.43-.83,2.59-1.85,2.59H32.66c-1,0-1.85-1.16-1.85-2.59V47"/><path class="b" d="M24.28,20.15v-10A2.7,2.7,0,0,1,27,7.46h0a2.7,2.7,0,0,1,2.7,2.69v10"/><path class="b" d="M39.31,20.15v-10A2.7,2.7,0,0,1,42,7.46h0a2.7,2.7,0,0,1,2.69,2.69v10"/><polyline class="c" points="36.53 32.03 32.57 36.98 36.53 36.98 33.34 42.38"/></svg>