<svg xmlns="http://www.w3.org/2000/svg" viewBox="0 0 66.73 50.64"><defs><style>.a,.b{fill:none;stroke-linecap:round;stroke-width:1.63px;}.a{stroke:#1d1d1b;stroke-linejoin:round;}.b{stroke:#009fe3;stroke-miterlimit:10;}</style></defs><path class="a" d="M39.36,10.62a30.16,30.16,0,0,1,24.5,29.62v6.59" transform="translate(-0.31 -5.88)"/><path class="a" d="M3.56,46.51V40.24a30.16,30.16,0,0,1,24.38-29.6" transform="translate(-0.31 -5.88)"/><path class="b" d="M35.54,42.06H31.86a2.42,2.42,0,0,1-2.41-2.29L27.87,9.24a2.41,2.41,0,0,1,2.41-2.55H37a2.43,2.43,0,0,1,2.42,2.54L38,39.76A2.42,2.42,0,0,1,35.54,42.06Z" transform="translate(-0.31 -5.88)"/><line class="a" x1="20.4" y1="7.15" x2="23.07" y2="24.78"/><line class="a" x1="46.47" y1="7.15" x2="43.79" y2="24.78"/><line class="a" x1="23.73" y1="28.94" x2="24.4" y2="33.39"/><line class="a" x1="43.27" y1="28.94" x2="42.59" y2="33.39"/><path class="a" d="M33.71,55.71c-21.22,0-32.58-4.21-32.58-4.21V47.29h65.1V51.5s-11.36,4.21-32.58,4.21" transform="translate(-0.31 -5.88)"/></svg>