<svg xmlns="http://www.w3.org/2000/svg" viewBox="0 0 67 68.67"><defs><style>.a,.b{fill:none;stroke-linecap:round;stroke-width:1.68px;}.a{stroke:#009fe3;stroke-miterlimit:10;}.b{stroke:#1d1d1b;stroke-linejoin:round;}</style></defs><path class="a" d="M19.91,57.46v1.9a6.91,6.91,0,0,0,6.91,6.91H38.29a6.91,6.91,0,0,0,6.91-6.91V7.75A6.91,6.91,0,0,1,52.11.84h0A6.91,6.91,0,0,1,59,7.75v37"/><line class="a" x1="19.95" y1="46.63" x2="19.95" y2="28.28"/><path class="a" d="M32.9,20.22s.82,6.6-2.73,10.07S20,32.78,20,32.78s-.83-6.6,2.72-10.07S32.9,20.22,32.9,20.22Z"/><path class="a" d="M7.22,15.83s6.59-.9,10.1,2.61,2.61,10.1,2.61,10.1-6.59.9-10.1-2.61S7.22,15.83,7.22,15.83Z"/><line class="a" x1="20.04" y1="32.78" x2="26.27" y2="26.88"/><line class="a" x1="19.94" y1="28.65" x2="14.05" y2="22.41"/><rect class="b" x="8.23" y="46.62" width="23.45" height="5.42" rx="2.71"/><rect class="b" x="8.19" y="52.04" width="23.45" height="5.42" rx="2.71"/><path class="b" d="M39.07,21A19.12,19.12,0,1,0,5.44,33.44h0c1.64,2.08,5.5,4.18,5.5,13.18h18c0-7.22,2.48-10,4.31-11.9A19.05,19.05,0,0,0,39.07,21Z"/><path class="b" d="M20,28.54"/><path class="b" d="M59,44.72h0a7.13,7.13,0,0,1,7.13,7.13v7.5a0,0,0,0,1,0,0H51.91a0,0,0,0,1,0,0v-7.5A7.13,7.13,0,0,1,59,44.72Z"/><line class="b" x1="55.51" y1="59.35" x2="55.51" y2="67.84"/><line class="b" x1="62.57" y1="59.35" x2="62.57" y2="67.84"/><line class="b" x1="56.32" y1="54.17" x2="66.17" y2="54.17"/></svg>