<svg xmlns="http://www.w3.org/2000/svg" viewBox="0 0 234 69.52"><defs><style>.a,.b,.c{fill:#fff;}.b,.c{stroke:#fff;stroke-miterlimit:10;}.b{stroke-width:1.41px;}.c{stroke-width:1.41px;}</style></defs><path class="a" d="M71,22.75V12.93h10.1v1.45H72.88v2.45H80.7v1.46H72.88v3h8.24v1.45Z"/><path class="a" d="M82.82,22.75V21.3h8.54c.82,0,1.23-.3,1.23-.91V19.15c0-.6-.41-.91-1.23-.91H85.58a4.93,4.93,0,0,1-1.42-.17,2.58,2.58,0,0,1-1-.49,1.81,1.81,0,0,1-.54-.75,2.61,2.61,0,0,1-.17-1V15.3a2.69,2.69,0,0,1,.17-1,1.81,1.81,0,0,1,.54-.75,2.58,2.58,0,0,1,1-.49,5.31,5.31,0,0,1,1.42-.17H93.9v1.45H85.58c-.81,0-1.22.3-1.22.91v.6c0,.6.41.9,1.22.9h5.78a4.86,4.86,0,0,1,1.42.18,2.56,2.56,0,0,1,1,.49,1.78,1.78,0,0,1,.53.74,2.49,2.49,0,0,1,.17,1v1.22a2.49,2.49,0,0,1-.17,1,1.87,1.87,0,0,1-.53.75,2.55,2.55,0,0,1-1,.48,4.86,4.86,0,0,1-1.42.18Z"/><path class="a" d="M100.2,22.75V14.38H95.06V12.93h12v1.45h-5v8.37Z"/><path class="a" d="M111.35,22.75a5,5,0,0,1-1.43-.18,2.5,2.5,0,0,1-1-.48,1.81,1.81,0,0,1-.54-.75,2.69,2.69,0,0,1-.17-1V12.93h1.86v7.46c0,.61.41.91,1.23.91h6.09c.82,0,1.23-.3,1.23-.91V12.93h1.86v7.45a4.08,4.08,0,0,1-.11,1,1.61,1.61,0,0,1-.4.75,1.92,1.92,0,0,1-.83.48,4.22,4.22,0,0,1-1.36.18Z"/><path class="a" d="M122.3,22.75V12.93h9a7.15,7.15,0,0,1,1.74.18,2.68,2.68,0,0,1,1.11.54,2.08,2.08,0,0,1,.6.91,4.39,4.39,0,0,1,.17,1.27V20a4.08,4.08,0,0,1-.17,1.22,2,2,0,0,1-.6.87,2.8,2.8,0,0,1-1.11.53,7.15,7.15,0,0,1-1.74.18Zm10.77-6.92a2.33,2.33,0,0,0-.09-.7.88.88,0,0,0-.28-.44,1.21,1.21,0,0,0-.55-.24,4.1,4.1,0,0,0-.85-.07h-7.15V21.3h7.15a4.1,4.1,0,0,0,.85-.07,1.47,1.47,0,0,0,.55-.22.87.87,0,0,0,.28-.42,2.1,2.1,0,0,0,.09-.66Z"/><path class="a" d="M136.73,22.75V12.93h1.86v9.82Z"/><path class="a" d="M143.49,22.75a4.93,4.93,0,0,1-1.43-.18,2.43,2.43,0,0,1-.95-.48,1.81,1.81,0,0,1-.54-.75,2.69,2.69,0,0,1-.17-1V15.3a2.69,2.69,0,0,1,.17-1,1.81,1.81,0,0,1,.54-.75,2.58,2.58,0,0,1,.95-.49,5.34,5.34,0,0,1,1.43-.17H150a5.34,5.34,0,0,1,1.43.17,2.58,2.58,0,0,1,.95.49,1.81,1.81,0,0,1,.54.75,2.69,2.69,0,0,1,.17,1v5.08a2.69,2.69,0,0,1-.17,1,1.81,1.81,0,0,1-.54.75,2.43,2.43,0,0,1-.95.48,4.93,4.93,0,0,1-1.43.18Zm7.71-7.46c0-.61-.41-.91-1.23-.91h-6.48c-.82,0-1.23.3-1.23.91v5.1c0,.61.41.91,1.23.91H150c.82,0,1.23-.3,1.23-.91Z"/><path class="a" d="M154.92,22.75V21.3h8.54c.82,0,1.23-.3,1.23-.91V19.15c0-.6-.41-.91-1.23-.91h-5.77a5,5,0,0,1-1.43-.17,2.58,2.58,0,0,1-.95-.49,1.81,1.81,0,0,1-.54-.75,2.61,2.61,0,0,1-.17-1V15.3a2.69,2.69,0,0,1,.17-1,1.81,1.81,0,0,1,.54-.75,2.58,2.58,0,0,1,.95-.49,5.34,5.34,0,0,1,1.43-.17H166v1.45h-8.31c-.82,0-1.23.3-1.23.91v.6q0,.9,1.23.9h5.77a4.86,4.86,0,0,1,1.42.18,2.56,2.56,0,0,1,1,.49,1.71,1.71,0,0,1,.54.74,2.69,2.69,0,0,1,.16,1v1.22a2.69,2.69,0,0,1-.16,1,1.81,1.81,0,0,1-.54.75,2.55,2.55,0,0,1-1,.48,4.86,4.86,0,0,1-1.42.18Z"/><path class="a" d="M180.44,22.75v-4l-6.31-5.83h2.37l4.86,4.49,4.85-4.49h2.35l-6.27,5.83v4Z"/><path class="a" d="M84.26,39.49V32.61l-5,6.88H77.74l-5-6.86v6.86H71V29.67h1.73l5.83,8,5.8-8H86v9.82Z"/><path class="a" d="M90.8,39.49a4.86,4.86,0,0,1-1.42-.18,2.7,2.7,0,0,1-1-.48,1.87,1.87,0,0,1-.53-.75,2.49,2.49,0,0,1-.17-1V32a2.49,2.49,0,0,1,.17-1,1.87,1.87,0,0,1,.53-.75,2.71,2.71,0,0,1,1-.49,5.26,5.26,0,0,1,1.42-.17h6.49a5.31,5.31,0,0,1,1.42.17,2.71,2.71,0,0,1,1,.49,1.87,1.87,0,0,1,.53.75,2.69,2.69,0,0,1,.17,1v5.08a2.69,2.69,0,0,1-.17,1,1.87,1.87,0,0,1-.53.75,2.7,2.7,0,0,1-1,.48,4.91,4.91,0,0,1-1.42.18ZM98.51,32c0-.61-.41-.91-1.22-.91H90.8c-.82,0-1.23.3-1.23.91v5.1c0,.61.41.91,1.23.91h6.49c.81,0,1.22-.3,1.22-.91Z"/><path class="a" d="M114.21,39.49l-10.48-7.65v7.65h-1.62V29.67h1.61L113.5,37V29.67h1.61v9.82Z"/><path class="a" d="M121.49,39.49V31.12h-5.15V29.67h12v1.45h-5v8.37Z"/><path class="a" d="M138.38,39.49l-5.06-7.91-5.15,7.91h-2.06l6.52-9.82H134l6.48,9.82Z"/><path class="a" d="M141.41,39.49V38h2.69a2.09,2.09,0,0,0,.93-.16.52.52,0,0,0,.28-.48V29.67h1.86V37.4a2,2,0,0,1-.18.84,1.55,1.55,0,0,1-.54.66,2.66,2.66,0,0,1-1,.43,5.16,5.16,0,0,1-1.39.16Z"/><path class="a" d="M148.94,39.49V29.67H159v1.45h-8.25v2.45h7.83V35h-7.83v3H159v1.45Z"/><path class="a" d="M160.74,39.49V38h8.54c.82,0,1.22-.3,1.22-.91V35.89c0-.61-.4-.91-1.22-.91H163.5a5.26,5.26,0,0,1-1.42-.17,2.71,2.71,0,0,1-1-.49,1.87,1.87,0,0,1-.53-.75,2.65,2.65,0,0,1-.17-1V32a2.69,2.69,0,0,1,.17-1,1.87,1.87,0,0,1,.53-.75,2.71,2.71,0,0,1,1-.49,5.26,5.26,0,0,1,1.42-.17h8.32v1.45H163.5c-.82,0-1.23.3-1.23.91v.6q0,.9,1.23.9h5.78a4.86,4.86,0,0,1,1.42.18,2.7,2.7,0,0,1,1,.48,1.87,1.87,0,0,1,.53.75,2.69,2.69,0,0,1,.17,1v1.22a2.69,2.69,0,0,1-.17,1,1.87,1.87,0,0,1-.53.75,2.7,2.7,0,0,1-1,.48,4.86,4.86,0,0,1-1.42.18Z"/><path class="a" d="M71,56.23V46.41h10.1v1.45H72.88v2.45H80.7v1.45H72.88v3h8.24v1.45Z"/><path class="a" d="M82.7,56.23V46.41h1.86v8.37h8v1.45Z"/><path class="a" d="M93.83,56.23V46.41h10.1v1.45H95.68v2.45h7.83v1.45H95.68v3h8.25v1.45ZM96.9,45.7V44.54l4.56-1v1.57Z"/><path class="a" d="M108.52,56.23a4.93,4.93,0,0,1-1.43-.18,2.57,2.57,0,0,1-1-.48,1.81,1.81,0,0,1-.54-.75,2.69,2.69,0,0,1-.17-1V48.78a2.65,2.65,0,0,1,.17-1,1.81,1.81,0,0,1,.54-.75,2.58,2.58,0,0,1,1-.49,5.34,5.34,0,0,1,1.43-.17h7.91v1.45h-7.91q-1.23,0-1.23.9v5.11c0,.6.41.91,1.23.91h7.91v1.45Z"/><path class="a" d="M122.55,56.23V47.86H117.4V46.41h12v1.45h-5v8.37Z"/><path class="a" d="M140,56.23l-2.3-4.38h-5.17v4.38h-1.86V46.41H139a5.31,5.31,0,0,1,1.42.17,2.58,2.58,0,0,1,1,.49,1.81,1.81,0,0,1,.54.75,2.65,2.65,0,0,1,.17,1v.7a2.31,2.31,0,0,1-.56,1.58,2.75,2.75,0,0,1-1.87.76L142,56.23Zm.24-7.47c0-.6-.41-.9-1.22-.9h-6.49V50.4H139c.81,0,1.22-.31,1.22-.91Z"/><path class="a" d="M143.64,56.23V46.41h1.85v9.82Z"/><path class="a" d="M150.39,56.23a4.86,4.86,0,0,1-1.42-.18,2.7,2.7,0,0,1-1-.48,1.87,1.87,0,0,1-.53-.75,2.49,2.49,0,0,1-.17-1V48.78a2.45,2.45,0,0,1,.17-1,1.87,1.87,0,0,1,.53-.75,2.71,2.71,0,0,1,1-.49,5.26,5.26,0,0,1,1.42-.17h7.91v1.45h-7.91q-1.23,0-1.23.9v5.11c0,.6.41.91,1.23.91h7.91v1.45Z"/><path class="a" d="M162.88,56.23a4.93,4.93,0,0,1-1.43-.18,2.57,2.57,0,0,1-.95-.48,1.81,1.81,0,0,1-.54-.75,2.69,2.69,0,0,1-.17-1V48.78a2.65,2.65,0,0,1,.17-1,1.81,1.81,0,0,1,.54-.75,2.58,2.58,0,0,1,.95-.49,5.34,5.34,0,0,1,1.43-.17h6.48a5.26,5.26,0,0,1,1.42.17,2.63,2.63,0,0,1,1,.49,1.9,1.9,0,0,1,.54.75,2.65,2.65,0,0,1,.16,1v5.08a2.69,2.69,0,0,1-.16,1,1.9,1.9,0,0,1-.54.75,2.62,2.62,0,0,1-1,.48,4.86,4.86,0,0,1-1.42.18Zm7.71-7.47q0-.9-1.23-.9h-6.48q-1.23,0-1.23.9v5.11c0,.6.41.91,1.23.91h6.48c.82,0,1.23-.31,1.23-.91Z"/><path class="a" d="M174.31,56.23V54.78h8.54c.82,0,1.23-.31,1.23-.91V52.63c0-.61-.41-.91-1.23-.91h-5.77a5.34,5.34,0,0,1-1.43-.17,2.58,2.58,0,0,1-1-.49,1.81,1.81,0,0,1-.54-.75,2.65,2.65,0,0,1-.17-1v-.57a2.65,2.65,0,0,1,.17-1,1.81,1.81,0,0,1,.54-.75,2.58,2.58,0,0,1,1-.49,5.34,5.34,0,0,1,1.43-.17h8.31v1.45h-8.31q-1.23,0-1.23.9v.6c0,.61.41.91,1.23.91h5.77a4.86,4.86,0,0,1,1.42.18,2.55,2.55,0,0,1,1,.48,2,2,0,0,1,.54.75,2.69,2.69,0,0,1,.16,1v1.22a2.69,2.69,0,0,1-.16,1,2,2,0,0,1-.54.75,2.7,2.7,0,0,1-1,.48,4.86,4.86,0,0,1-1.42.18Z"/><path class="a" d="M187.06,57.25V54.41H189v.84l-1.17,2Z"/><path class="a" d="M198,56.23V54.78h8.54c.82,0,1.23-.31,1.23-.91V52.63c0-.61-.41-.91-1.23-.91h-5.77a5.39,5.39,0,0,1-1.43-.17,2.66,2.66,0,0,1-.95-.49,1.81,1.81,0,0,1-.54-.75,2.65,2.65,0,0,1-.17-1v-.57a2.65,2.65,0,0,1,.17-1,1.81,1.81,0,0,1,.54-.75,2.66,2.66,0,0,1,.95-.49,5.39,5.39,0,0,1,1.43-.17h8.31v1.45h-8.31q-1.23,0-1.23.9v.6c0,.61.41.91,1.23.91h5.77a5,5,0,0,1,1.43.18,2.5,2.5,0,0,1,1,.48,1.81,1.81,0,0,1,.54.75,2.69,2.69,0,0,1,.16,1v1.22a2.69,2.69,0,0,1-.16,1,1.81,1.81,0,0,1-.54.75,2.65,2.65,0,0,1-1,.48,5,5,0,0,1-1.43.18Z"/><path class="a" d="M210.73,56.23V54.41h2.19v1.82Z"/><path class="a" d="M214.78,56.23V46.41h1.87v8.37h8v1.45Z"/><line class="b" y1="68.82" x2="234" y2="68.82"/><line class="c" y1="0.71" x2="234" y2="0.71"/><path class="a" d="M4.83,11.18V58.35H52V11.18ZM46.07,49.56H35.35V46l1.6-.13c.72,0,1.2-.31,1.16-1.16L37.26,29h-.08L30.32,46.71H26.1L19.34,29.14h-.09l-.89,16.5,2.89.13v3.79H10.75V46l1.6-.13a1.2,1.2,0,0,0,1.12-1.2l1.2-20.69L12,23.75V20h8.94l7.52,20,.05.12h.09L36.15,20H45v3.61l-1.47.13c-.8.09-1.33.35-1.29,1.56l1.11,20.37,2.76.13Z"/></svg>