<svg xmlns="http://www.w3.org/2000/svg" viewBox="0 0 66.96 68.67"><defs><style>.a,.b{fill:none;stroke-linecap:round;stroke-width:1.68px;}.a{stroke:#1d1d1b;stroke-linejoin:round;}.b{stroke:#009fe3;stroke-miterlimit:10;}</style></defs><polyline class="a" points="52.64 62.05 52.28 62.43 46.7 59.75 41.66 61.87 39.54 67.84 27.42 67.84 26.03 63.9 25.08 61.78 20.27 59.75 14.68 62.43 6.11 53.62 8.73 47.88 6.65 42.72 0.84 40.55 0.84 28.12 4.67 26.68 6.76 25.67 8.73 20.79 6.11 15.05 14.68 6.26 20.27 8.94 25.31 6.8 27.42 0.84 39.54 0.84 40.94 4.78 41.88 6.89 46.69 8.93 52.29 6.25 60.85 15.04 58.23 20.79 60.32 25.95 66.12 28.12 66.12 40.55 62.28 41.99 60.2 43.01 58.23 47.88 60.85 53.63 60.29 54.2"/><path class="a" d="M43.85,51.73a20.18,20.18,0,1,1,6.63-6.41" transform="translate(-0.02)"/><path class="b" d="M63.71,65.84A5.89,5.89,0,0,1,55,65l-2.13-2.78h0L45,52.06h0l-6.56-8.52-.77.26a10,10,0,0,1-9.95-1.91,9.84,9.84,0,0,1-2.35-3.07,8.6,8.6,0,0,1,.07-7.39L31.56,38l5.26-1.42L38.37,32l-5.9-6.08a7.86,7.86,0,0,1,9.2,1.59,10.11,10.11,0,0,1,1.88,10.86l-.32.74,8,7.13h0L63.55,57.07a5.85,5.85,0,0,1,.16,8.77Z" transform="translate(-0.02)"/><line class="a" x1="12.89" y1="13.76" x2="12.89" y2="13.76"/><line class="a" x1="33.44" y1="5.24" x2="33.44" y2="5.25"/><line class="a" x1="54" y1="13.75" x2="54" y2="13.76"/><line class="a" x1="62.51" y1="34.31" x2="62.51" y2="34.31"/><line class="a" x1="33.45" y1="63.39" x2="33.45" y2="63.39"/><line class="a" x1="12.89" y1="54.87" x2="12.89" y2="54.88"/><line class="a" x1="4.38" y1="34.31" x2="4.38" y2="34.31"/><circle class="b" cx="59.69" cy="61.57" r="2.64"/></svg>