<svg xmlns="http://www.w3.org/2000/svg" viewBox="0 0 50.38 68.67"><defs><style>.a,.b{fill:none;stroke-linecap:round;stroke-width:1.68px;}.a{stroke:#1d1d1b;stroke-linejoin:round;}.b{stroke:#009fe3;stroke-miterlimit:10;}</style></defs><polygon class="a" points="11.91 67.63 25.19 23.04 39.12 67.84 25.2 57.84 11.91 67.63"/><circle class="a" cx="25.19" cy="19.1" r="3.93"/><path class="b" d="M28.09,26.7A9.62,9.62,0,0,1,28,11.56" transform="translate(-8.81)"/><path class="b" d="M40,11.56a9.62,9.62,0,0,1-.19,15.23" transform="translate(-8.81)"/><path class="b" d="M19.23,26.26a16.41,16.41,0,0,1,4-19.57" transform="translate(-8.81)"/><path class="b" d="M23,31.31a16.52,16.52,0,0,1-2.61-3" transform="translate(-8.81)"/><path class="b" d="M48.86,12.15A16.42,16.42,0,0,1,45,31.31" transform="translate(-8.81)"/><path class="b" d="M44.74,6.71A16.31,16.31,0,0,1,47.6,9.94" transform="translate(-8.81)"/><path class="b" d="M17.89,37.36a24.33,24.33,0,0,1,0-36.52" transform="translate(-8.81)"/><path class="b" d="M50.53,1.22a24.35,24.35,0,0,1-.2,35.94" transform="translate(-8.81)"/><line class="a" x1="25.2" y1="57.84" x2="33.71" y2="51.59"/><line class="a" x1="25.2" y1="57.84" x2="16.69" y2="51.59"/><line class="a" x1="18.74" y1="45.18" x2="29.39" y2="37.36"/><line class="a" x1="21.17" y1="37.36" x2="25.2" y2="40.44"/><line class="a" x1="27.98" y1="42.3" x2="32.08" y2="45.44"/></svg>