<svg xmlns="http://www.w3.org/2000/svg" viewBox="0 0 26 26"><defs><style>.a{fill:#fff;}</style></defs><path class="a" d="M17.88,0H8.12A8.13,8.13,0,0,0,0,8.13v9.75A8.13,8.13,0,0,0,8.12,26h9.76A8.13,8.13,0,0,0,26,17.88V8.13A8.13,8.13,0,0,0,17.88,0Zm5.68,17.88a5.69,5.69,0,0,1-5.68,5.68H8.12a5.69,5.69,0,0,1-5.68-5.68V8.13A5.69,5.69,0,0,1,8.12,2.44h9.76a5.69,5.69,0,0,1,5.68,5.69Z"/><path class="a" d="M13,6.5A6.5,6.5,0,1,0,19.5,13,6.5,6.5,0,0,0,13,6.5Zm0,10.56A4.06,4.06,0,1,1,17.06,13,4.06,4.06,0,0,1,13,17.06Z"/><circle class="a" cx="19.99" cy="6.01" r="0.87"/></svg>